<?xml version='1.0' encoding='utf-8'?>
<svg xmlns="http://www.w3.org/2000/svg" enable-background="new 0 0 399 496" version="1.1" viewBox="0 0 399 496">
<linearGradient id="i" x1="38.8" x2="371.76" y1="75.824" y2="420.47" gradientUnits="userSpaceOnUse">
	<stop stop-color="#F39800" offset="0"/>
	<stop stop-color="#48000E" offset="1"/>
</linearGradient>
<ellipse cx="203.51" cy="246.32" rx="170.96" ry="231.68" fill="url(#i)"/>
<path d="m203.51 471.99c-91.167 0-165.34-101.23-165.34-225.67s74.17-225.67 165.34-225.67 165.34 101.23 165.34 225.67-74.17 225.67-165.34 225.67z" fill="none" stroke="#fff" stroke-miterlimit="10" stroke-width="2"/>
<linearGradient id="j" x1="39.034" x2="255.22" y1="292.07" y2="388.23" gradientUnits="userSpaceOnUse">
	<stop stop-color="#fff" offset="0"/>
	<stop stop-color="#5C5A5A" offset="1"/>
</linearGradient>
<ellipse cx="192.15" cy="360.17" rx="121.51" ry="56.451" fill="url(#j)" stroke="#727171" stroke-miterlimit="10"/>
<linearGradient id="k" x1="100.73" x2="336.54" y1="360.17" y2="360.17" gradientUnits="userSpaceOnUse">
	<stop stop-color="#C9CACA" offset="0"/>
	<stop stop-color="#DEDEDE" offset="1"/>
</linearGradient>
<ellipse cx="192.15" cy="360.17" rx="91.419" ry="42.473" fill="url(#k)" stroke="#E0E1E1" stroke-miterlimit="10"/>
<linearGradient id="l" x1="135.88" x2="248.43" y1="360.17" y2="360.17" gradientUnits="userSpaceOnUse">
	<stop stop-color="#fff" offset="0"/>
	<stop stop-color="#C9CACA" offset="1"/>
</linearGradient>
<ellipse cx="192.15" cy="360.17" rx="56.276" ry="26.146" fill="url(#l)" stroke="#C9CACA" stroke-miterlimit="10"/>
<path d="m312.88 360.17c0-11.544-7.464-22.276-20.263-31.218l-43.391 4.233-112.74 26.16s0 29.561 113.52 50.276c37.483-9.611 62.875-28.152 62.875-49.451z" opacity=".7"/>
<linearGradient id="m" x1="255.95" x2="361.93" y1="290.42" y2="290.42" gradientUnits="userSpaceOnUse">
	<stop stop-color="#fff" offset="0"/>
	<stop stop-color="#C9CACA" offset="1"/>
</linearGradient>
<path d="m264.95 351.13c-3.946 0-7.566-2.615-8.67-6.604-1.324-4.791 1.485-9.748 6.276-11.073 73.157-20.228 80.741-53.238 81.323-62.873 0.7-11.598-5.157-19.329-11.272-21.845-6.433-2.647-13.517-0.074-19.943 7.248-3.279 3.733-8.965 4.105-12.701 0.826-3.735-3.279-4.105-8.966-0.826-12.701 11.554-13.162 26.629-17.653 40.32-12.019 14.462 5.951 23.46 21.855 22.39 39.576-0.979 16.209-12.146 56.368-94.493 79.138-0.803 0.221-1.61 0.327-2.404 0.327z" fill="url(#m)" stroke="#898989" stroke-miterlimit="10"/>
<linearGradient id="n" x1="84.447" x2="241.32" y1="246.13" y2="301.23" gradientUnits="userSpaceOnUse">
	<stop stop-color="#EFEFEF" offset="0"/>
	<stop stop-color="#9D9D9E" offset="1"/>
</linearGradient>
<path d="m313.66 228.85c0 81.061-54.4 146.77-121.51 146.77s-121.5-65.713-121.5-146.77h243.01z" fill="url(#n)" stroke="#9FA0A0" stroke-miterlimit="10"/>
<linearGradient id="o" x1="81.437" x2="304.94" y1="172.63" y2="286.13" gradientUnits="userSpaceOnUse">
	<stop stop-color="#fff" offset="0"/>
	<stop stop-color="#C9CACA" offset="1"/>
</linearGradient>
<ellipse cx="192.15" cy="228.85" rx="121.51" ry="56.452" fill="url(#o)" stroke="#B5B5B6" stroke-miterlimit="10"/>
<linearGradient id="p" x1="336.9" x2="58.651" y1="262.91" y2="197.44" gradientUnits="userSpaceOnUse">
	<stop stop-color="#fff" offset="0"/>
	<stop stop-color="#C9CACA" offset="1"/>
</linearGradient>
<path d="m192.15 281.9c-31.971 0-61.974-5.76-84.484-16.218-21.68-10.073-33.62-23.153-33.62-36.833s11.94-26.76 33.62-36.833c22.51-10.458 52.513-16.218 84.484-16.218s61.975 5.76 84.484 16.218c21.68 10.073 33.62 23.153 33.62 36.833s-11.94 26.76-33.62 36.833c-22.509 10.458-52.513 16.218-84.484 16.218z" fill="url(#p)" stroke="#EFEFEF" stroke-miterlimit="10"/>
<path d="m300.89 249.34c-15.212-21.127-58.146-36.354-108.74-36.354s-93.526 15.227-108.74 36.354c5.676 5.962 13.837 11.498 24.254 16.337 22.51 10.458 52.513 16.218 84.484 16.218s61.975-5.76 84.484-16.218c10.417-4.84 18.578-10.375 24.254-16.337z" fill="#7F4F21"/>
<path d="m212.63 135.33s-0.288-0.266-0.838-0.772c-0.277-0.256-0.613-0.581-0.98-0.991-0.376-0.405-0.815-0.878-1.258-1.455-0.92-1.132-1.947-2.635-2.878-4.592-0.925-1.951-1.757-4.386-2.108-7.205-0.205-1.412-0.251-2.896-0.229-4.449 0.044-1.545 0.208-3.136 0.47-4.754 0.541-3.222 1.505-6.506 2.712-9.718 2.409-6.446 5.724-12.657 8.446-18.721 2.748-6.071 4.503-11.437 4.956-16.704 0.48-5.243-0.273-10.422-1.449-14.866-1.158-4.452-2.594-8.15-3.603-10.718-1.048-2.595-1.629-4.035-1.629-4.035s0.324 0.221 0.938 0.641c0.611 0.427 1.52 1.056 2.623 1.949 2.215 1.778 5.367 4.495 8.575 8.708 1.599 2.106 3.2 4.601 4.555 7.559 1.346 2.951 2.47 6.373 3.004 10.15 0.545 3.77 0.496 7.869-0.212 11.912-0.681 4.058-2.01 8.013-3.669 11.728-1.668 3.718-3.593 7.007-5.476 10.009-1.884 2.993-3.749 5.699-5.404 8.212-3.346 5.02-5.804 9.33-6.894 13.402-1.149 4.045-0.955 7.849-0.528 10.505 0.087 0.672 0.214 1.262 0.318 1.782 0.097 0.526 0.202 0.966 0.294 1.321 0.173 0.721 0.264 1.102 0.264 1.102z" fill="#fff"/>
<path d="m176.31 157.52s-0.288-0.267-0.837-0.773c-0.278-0.256-0.613-0.581-0.981-0.991-0.376-0.404-0.814-0.878-1.256-1.455-0.92-1.132-1.948-2.636-2.879-4.593-0.924-1.95-1.756-4.386-2.108-7.204-0.205-1.412-0.25-2.897-0.229-4.45 0.045-1.544 0.208-3.136 0.47-4.754 0.543-3.222 1.505-6.507 2.712-9.718 2.412-6.446 5.725-12.657 8.447-18.721 2.748-6.07 4.503-11.437 4.956-16.704 0.481-5.243-0.273-10.421-1.45-14.865-1.157-4.452-2.593-8.15-3.601-10.718-1.048-2.595-1.63-4.035-1.63-4.035s0.324 0.221 0.939 0.64c0.612 0.428 1.52 1.057 2.624 1.95 2.213 1.778 5.367 4.495 8.574 8.707 1.599 2.105 3.2 4.601 4.555 7.559 1.347 2.951 2.47 6.373 3.005 10.151 0.544 3.769 0.495 7.869-0.212 11.912-0.682 4.059-2.011 8.013-3.67 11.727-1.668 3.719-3.592 7.007-5.475 10.01-1.885 2.993-3.749 5.699-5.405 8.211-3.346 5.02-5.805 9.33-6.894 13.402-1.149 4.045-0.955 7.85-0.528 10.505 0.087 0.672 0.213 1.262 0.318 1.782 0.096 0.525 0.203 0.965 0.293 1.321 0.171 0.723 0.262 1.104 0.262 1.104z" fill="#fff"/>
<path d="m199.47 237.86s-0.353-0.03-1.04-0.089c-0.682-0.074-1.707-0.127-3.04-0.187-0.668-8e-3 -1.414-0.017-2.238-0.027-0.824 0.03-1.719 0.015-2.687 0.085-1.933 0.086-4.149 0.306-6.563 0.708-2.4 0.412-5.048 0.999-7.565 1.987-1.259 0.485-2.452 1.097-3.445 1.796-0.996 0.715-1.628 1.442-1.955 2.314-0.318 0.857-0.117 1.813 0.546 2.58 0.183 0.18 0.366 0.361 0.552 0.544 0.216 0.158 0.435 0.317 0.654 0.477 0.292 0.171 0.586 0.343 0.882 0.517 0.304 0.173 0.686 0.325 1.021 0.492 2.897 1.276 6.694 2.094 10.866 2.512 4.196 0.45 8.687 0.576 13.308 0.352 4.617-0.216 9.375-0.848 13.932-1.9 2.236-0.562 4.498-1.179 6.437-2.011 0.527-0.181 0.942-0.424 1.414-0.632l0.688-0.322 0.6-0.354c0.408-0.231 0.826-0.457 1.123-0.71 0.328-0.247 0.686-0.463 0.977-0.751 1.254-1.092 1.803-2.135 1.752-2.866-0.014-0.378-0.123-0.732-0.371-1.147-0.248-0.411-0.652-0.879-1.232-1.365-1.158-0.977-2.959-1.982-5.108-2.82-2.13-0.856-4.609-1.559-7.208-2.15-1.317-0.28-2.651-0.553-4.037-0.771-1.365-0.236-2.862-0.392-4.293-0.6-2.91-0.354-5.884-0.626-8.908-0.774-6.04-0.317-12.261-0.248-18.466 0.241-6.196 0.492-12.404 1.403-18.208 2.844-2.835 0.774-5.642 1.582-8.028 2.615-0.586 0.26-1.26 0.478-1.78 0.764l-1.62 0.821-0.405 0.202-0.34 0.224-0.687 0.439c-0.463 0.288-0.941 0.563-1.35 0.909-0.894 0.646-1.567 1.32-2.196 1.972-0.568 0.659-1.011 1.304-1.322 1.925-0.27 0.623-0.427 1.221-0.477 1.821-0.016 0.599 0.096 1.208 0.312 1.843 0.225 0.635 0.646 1.294 1.13 1.965 0.552 0.664 1.164 1.344 1.952 1.997 1.512 1.324 3.496 2.558 5.658 3.674 4.355 2.237 9.466 3.994 14.694 5.358 2.617 0.696 5.263 1.281 7.959 1.801 1.354 0.258 2.695 0.524 4.048 0.742 1.346 0.235 2.688 0.458 4.032 0.65 5.363 0.809 10.658 1.388 15.818 1.783 10.324 0.787 20.094 0.84 28.98 0.424 8.895-0.414 16.898-1.347 23.812-2.53 6.906-1.205 12.725-2.676 17.289-4.193 4.584-1.499 7.928-3.01 10.102-4.13 1.109-0.544 1.891-1.018 2.432-1.328 0.539-0.311 0.816-0.469 0.816-0.469s-0.232 0.191-0.688 0.565c-0.457 0.374-1.123 0.944-2.1 1.621-1.908 1.385-4.939 3.314-9.305 5.364-4.348 2.067-10.037 4.215-16.971 6.155-6.938 1.919-15.111 3.646-24.359 4.84-9.242 1.196-19.551 1.912-30.683 1.789-5.564-0.063-11.333-0.338-17.259-0.891-1.483-0.128-2.973-0.291-4.472-0.469-1.503-0.16-3.007-0.375-4.524-0.582-3.04-0.423-6.163-0.948-9.279-1.615-6.241-1.319-12.607-3.127-18.766-5.949-3.066-1.424-6.096-3.095-8.837-5.257-1.382-1.061-2.657-2.281-3.824-3.599-1.124-1.356-2.145-2.819-2.848-4.449-0.692-1.627-1.115-3.373-1.141-5.154 2e-3 -1.779 0.383-3.553 1.067-5.228 0.718-1.662 1.725-3.199 2.896-4.609 1.204-1.371 2.527-2.668 3.981-3.783 0.693-0.584 1.498-1.11 2.305-1.637l1.212-0.789 0.61-0.392 0.631-0.338 2.55-1.33c0.853-0.453 1.741-0.772 2.616-1.161 3.513-1.525 7.16-2.594 10.836-3.585 7.378-1.833 14.781-2.84 22.085-3.33 7.306-0.479 14.525-0.42 21.574 0.125 3.524 0.264 7.006 0.677 10.429 1.204 1.717 0.298 3.389 0.532 5.111 0.889 1.717 0.333 3.418 0.74 5.104 1.17 3.367 0.903 6.674 1.978 9.836 3.424 3.15 1.433 6.213 3.217 8.74 5.682 1.248 1.233 2.346 2.661 3.059 4.275 0.717 1.606 1.006 3.401 0.742 5.125-0.252 1.728-1.031 3.342-2.061 4.702-1.029 1.368-2.287 2.504-3.598 3.48-0.633 0.498-1.379 0.934-2.1 1.375-0.719 0.464-1.463 0.818-2.205 1.172l-1.113 0.53-1.121 0.443c-0.75 0.28-1.492 0.603-2.242 0.817-2.988 1.02-5.957 1.619-8.865 2.137-5.824 0.937-11.44 1.255-16.795 1.119-5.354-0.134-10.445-0.678-15.186-1.59-4.753-0.896-9.329-2.239-13.127-4.426-0.467-0.294-0.936-0.554-1.377-0.874-0.438-0.332-0.865-0.649-1.281-0.994-0.415-0.396-0.815-0.795-1.188-1.195-0.313-0.427-0.624-0.85-0.889-1.277-0.992-1.745-0.94-3.654-0.02-5.229 0.875-1.576 2.526-2.88 4.098-3.716 1.598-0.845 3.228-1.424 4.809-1.842 3.165-0.841 6.121-1.149 8.754-1.31 2.638-0.143 4.97-0.109 6.97 0.031 1.001 0.043 1.916 0.165 2.752 0.234 0.828 0.109 1.578 0.209 2.249 0.298 1.328 0.223 2.327 0.403 2.987 0.563 0.664 0.145 1.004 0.219 1.004 0.219z" fill="#DDC39D"/>
</svg>